<svg xmlns="http://www.w3.org/2000/svg" width="98" height="76.277" viewBox="0 0 98 76.277">
  <g id="Group_185" data-name="Group 185" transform="translate(1)">
    <g id="Group_179" data-name="Group 179">
      <path id="Path_107" data-name="Path 107" d="M456.585,741.862H442.751V713.917h13.834Zm0,7.623H442.751v-6.351h13.834ZM441.5,719H426.406v-5.083H441.5Zm-7.545,3.936,3.581,2.413h-7.163Zm7.545,18.928H426.406V720.268h6.915v1.567l-5.378,3.621a.638.638,0,0,0-.253.712.63.63,0,0,0,.6.451h11.316a.631.631,0,0,0,.6-.451.639.639,0,0,0-.255-.712l-5.378-3.621v-1.567H441.5Zm0,7.623H426.406v-6.351H441.5Zm15.088-36.84h-30.18a1.263,1.263,0,0,0-1.257,1.272v35.568a1.262,1.262,0,0,0,1.257,1.27h2.517v2.539h1.256v-2.539h22.637v2.539h1.256v-2.539h2.515a1.261,1.261,0,0,0,1.258-1.27V713.917a1.262,1.262,0,0,0-1.258-1.272" transform="translate(-393.148 -712.645)" fill="#171716"/>
      <text id="Bedroom_wardrobe_In_all_units" data-name="Bedroom wardrobe
In all units" transform="translate(48 60.277)" font-size="10" font-family="Poppins-Light, Poppins" font-weight="300"><tspan x="-48.42" y="0">Bedroom wardrobe</tspan><tspan x="-24.245" y="12">In all units</tspan></text>
    </g>
  </g>
</svg>
