<svg xmlns="http://www.w3.org/2000/svg" width="102" height="58.179" viewBox="0 0 102 58.179">
  <g id="Group_183" data-name="Group 183" transform="translate(0)">
    <g id="Group_180" data-name="Group 180" transform="translate(26)">
      <g id="Group_143" data-name="Group 143">
        <path id="Path_105" data-name="Path 105" d="M267.04,749.317V716.975l-.149-.362-.362-.147H217.664l-.364.147-.147.362v32.342a.511.511,0,0,0,1.023,0V717.481h47.841v31.836a.511.511,0,0,0,1.023,0" transform="translate(-217.153 -716.465)" fill="#171716"/>
        <path id="Path_106" data-name="Path 106" d="M225.989,729.817q6.194-.426,12.386-.422,6.551,0,13.1.466l.058-.792q-6.579-.467-13.161-.468-6.224,0-12.44.424Zm27.357.2-.309.249a8.562,8.562,0,0,1,1.136,1.68,4.521,4.521,0,0,1,.449,2.018l0,.1v9.863l-.151.247.191.346v-.4h-5.722v.4l.189-.346-.151-.247v-2.7l-.415.022c-3.083.14-6.457.209-9.829.209s-6.742-.069-9.827-.209l-.415-.022v2.7l-.149.247.187.346v-.4h-5.722v.4l.193-.346-.153-.247v-9.964a4.5,4.5,0,0,1,.448-2.018,8.549,8.549,0,0,1,1.134-1.68l.318-.393.16-.2-.115-.226-.158-.271-.311-.275-.045-.018-2.289-.5-.022,0-.011.12.1-.062-.091-.058-.011.12.1-.062-.013-.1a1.388,1.388,0,0,1,.158-.579l.136-.195.042-.029v0l-.024-.073.009.075.015,0-.024-.073.009.075,1.978-.231-.046-.4,0,.4h.011l.115.026.075.176.391-.073-.393.042.071.755.031.368,1.136-.013,3.414-4.422.177-.169.207-.066h.013a59.466,59.466,0,0,1,9.206-.69,58.863,58.863,0,0,1,9.163.69h.013l.207.066.175.169,3.418,4.426.772,0,.36,0,.1-1.108-.395-.042.391.073.071-.176.12-.026h.009l0-.4-.046.4,1.98.231.007-.075-.022.073.015,0,.007-.075-.022.073a.733.733,0,0,1,.213.3,1.392,1.392,0,0,1,.122.508l-.007.084-.005.02.086.04-.056-.071-.029.031.086.04-.056-.071.075.1-.013-.127-.062.029.075.1-.013-.127-.022,0-2.291.5-.04.018-.315.275-.16.271-.111.226.475.593.309-.249.308-.253-.317-.388-.309.249.357.176.089-.156.022-.029-.022-.033.02.033h0l-.022-.033.02.033-.175-.358.086.389,2.226-.488-.087-.386.047.4a.694.694,0,0,0,.511-.338,1.042,1.042,0,0,0,.118-.5,2.207,2.207,0,0,0-.251-.943l-.291-.4a.808.808,0,0,0-.482-.246l-2-.237h-.04a.951.951,0,0,0-.641.22,1.059,1.059,0,0,0-.331.633l0,.016-.038.411h-.02l-3.181-4.118-.391-.359a1.28,1.28,0,0,0-.519-.173l-.051.391.064-.391a62.5,62.5,0,0,0-18.617,0l.06.391-.049-.391a1.289,1.289,0,0,0-.519.173l-.393.359-3.179,4.118h-.02l-.036-.393,0-.018,0-.016a1.1,1.1,0,0,0-.335-.633.939.939,0,0,0-.637-.22h-.038l-2,.237a.8.8,0,0,0-.484.246,1.76,1.76,0,0,0-.391.624,2.018,2.018,0,0,0-.144.719,1,1,0,0,0,.115.5.691.691,0,0,0,.51.338l.044-.4-.084.386,2.224.488.087-.389-.173.358.015-.036-.02.034.005,0,.015-.036-.02.034.005.007.107.18.357-.176-.308-.249-.32.388a9.453,9.453,0,0,0-1.236,1.838,5.378,5.378,0,0,0-.524,2.362v.115l.4-.007h-.4v9.856a1.08,1.08,0,0,0,.566.943l.087.046h5.927l.087-.046a1.08,1.08,0,0,0,.566-.943v-2.275h-.4l-.013.391c3.1.142,6.48.215,9.862.215s6.766-.073,9.865-.215l-.016-.391h-.4v2.275a1.085,1.085,0,0,0,.564.943l.087.046h5.927l.086-.046a1.074,1.074,0,0,0,.568-.943v-9.856h-.4l.4.007v-.115a5.4,5.4,0,0,0-.524-2.362,9.3,9.3,0,0,0-1.238-1.838Zm-8.773,3.931c-1.944.095-3.893.137-5.84.137s-3.867-.042-5.8-.131l-.038.79q2.915.134,5.836.135,2.943,0,5.878-.138Zm8.036-1.052-.053-.395-6.353.863-.45.182-.257.346,0,0-.182.422-.044.2a.574.574,0,0,0,.169.391l.342.215.357.08h0l5.321-.038h-.005l.368-.073-.158-.366.146.371,1.132-.444h0l.317-.215.164-.44v-.04l-.031-.719v0a.792.792,0,0,0-.206-.522.747.747,0,0,0-.542-.231l-.073.007h-.009l-.011,0,.053.395.035.391h.007l.013-.076-.058.047.046.029.013-.076-.058.047.029-.018-.035.009.005.009.029-.018-.035.009,0,.022v.005l.031.724h.136l-.106-.091-.031.091h.136l-.106-.091.069.06-.058-.069-.011.009.069.06-.058-.069.015.016-.009-.016h-.005l.015.016-.009-.016-.033.016,0,0-1.137.451h0l-.053.006-5.319.044,0,.393,0-.393v.115l.011-.115h-.011v.115l.011-.115-.127-.049-.022-.016-.166.169h.222l-.053-.164-.169.164h-.06l.26.115.022-.115h-.282l.26.115.184-.424,0,.006.029-.044.06-.018,6.351-.866-.053-.391.035.391Zm-27.752,0-.053.391,6.353.866.066.018.018.044.186.419.26-.115h-.28l.02.115.26-.115h-.055l-.171-.169-.055.169h.226l-.171-.169.035.04-.031-.04h0l.035.04-.031-.04-.086.044-.058.02-.007,0,.007.084v-.084h-.007l.007.084v-.084l.005.393,0-.393-5.318-.044h0l-.047-.006h-.009l-1.137-.451,0,0-.033-.016-.015.027.022-.025-.007,0-.015.027.022-.025-.095.1h.136l-.042-.1-.095.1h.036l.1.009V734h-.1l.1.009v0l.031-.73v-.005l0-.022-.064-.027.04.056.024-.029-.064-.027.04.056-.047-.067.025.076.022-.009-.047-.067.025.076,0,0v0h0l0,0v0h.005l.031-.391-.053.391.053-.391.035-.4-.071-.007a.742.742,0,0,0-.544.231.823.823,0,0,0-.207.522v0l-.025.726.393.016-.393-.024,0,.04.169.44.311.215,1.136.444.147-.371-.162.366.369.073h-.005l5.321.038h0l.244-.038.342-.162.171-.167.109-.318-.042-.2-.182-.422v0l-.26-.346-.45-.182h0L224.9,732.5h-.011Zm4.038,8.358a31.816,31.816,0,0,1-4.1-.4l-.126.783a31.226,31.226,0,0,0,4.209.409Zm19.7.79a31.282,31.282,0,0,0,4.211-.409l-.129-.783a31.785,31.785,0,0,1-4.1.4Z" transform="translate(-213.791 -711.562)" fill="#171716"/>
      </g>
    </g>
    <text id="Covered_car_parking" data-name="Covered car parking" transform="translate(51 54.179)" font-size="10" font-family="Poppins-Light, Poppins" font-weight="300"><tspan x="-50.77" y="0">Covered car parking</tspan></text>
  </g>
</svg>
