<svg id="Group_184" data-name="Group 184" xmlns="http://www.w3.org/2000/svg" width="96" height="64.598" viewBox="0 0 96 64.598">
  <path id="Path_124" data-name="Path 124" d="M353.99,756.253H318.759a.677.677,0,0,1-.676-.674l.032-.21-.022-.184v-1.716a1.594,1.594,0,0,1-1.364-1.6v-11.63a1.612,1.612,0,0,1,1.564-1.613h36.16a1.615,1.615,0,0,1,1.567,1.613v11.63a1.6,1.6,0,0,1-1.366,1.6v1.716l-.022.184.034.21a.677.677,0,0,1-.676.674M319.441,754.9h33.865v-1.417H319.441Zm25.747-2.771h9.266l.217-.265v-11.63l-.217-.263h-9.266Zm-11.223,0h9.875V739.976h-9.875v12.158Zm-3.621,0h2.271v-7.663h-2.178v7.312l-.093.35m-8.841,0h7.683l-.1-.35v-7.312H321.6v7.312l-.1.35m-3.425-7.663v7.4l.215.265h2.052l-.1-.35v-7.312Zm0-1.35h14.536v-3.145H318.293l-.215.263Zm29.188,3.73a.672.672,0,0,1-.676-.672v-4.01a.675.675,0,0,1,1.35,0v4.01a.675.675,0,0,1-.674.672m-5.5,0a.672.672,0,0,1-.674-.672v-4.01a.673.673,0,0,1,1.346,0v4.01a.673.673,0,0,1-.672.672m-12.775-4.566a.677.677,0,0,1-.658-.532.715.715,0,0,1,.5-.844.638.638,0,0,1,.8.472l.016.085a.664.664,0,0,1-.51.8l-.148.016m-2.425,0a.67.67,0,0,1-.658-.536.71.71,0,0,1,.512-.84.634.634,0,0,1,.789.476l.018.091a.666.666,0,0,1-.52.793l-.142.016m-4.847,0a.678.678,0,0,1-.66-.536.716.716,0,0,1,.516-.84.635.635,0,0,1,.789.476l.016.091a.667.667,0,0,1-.526.793l-.136.016m2.425,0a.675.675,0,0,1-.664-.546.712.712,0,0,1,.528-.832.634.634,0,0,1,.779.49l.018.093a.666.666,0,0,1-.536.783l-.125.012m8.086-13.779h-13.84a1.855,1.855,0,0,1-1.583-1.03.957.957,0,0,1,.219-1.068l3.57-3.467a5.022,5.022,0,0,1,1.212-.929v-6.2a.672.672,0,0,1,.674-.674h5.659a.676.676,0,0,1,.676.674v6.208a5.108,5.108,0,0,1,1.2.923l2.475,2.4v-8.594a1.611,1.611,0,0,1,1.571-1.611h20.389a1.612,1.612,0,0,1,1.567,1.611V726.81a1.593,1.593,0,0,1-1.567,1.611H334.064a1.487,1.487,0,0,1-.844-.255,1.792,1.792,0,0,1-.994.34m-13.986-1.4.146.053h13.84l.148-.053-3.3-3.2a4.19,4.19,0,0,0-.868-.692l-.364-.057h-5.076l-.366.057a4.111,4.111,0,0,0-.87.692Zm26.947-.03h9.266l.217-.263V716.747l-.217-.263h-9.266Zm-11.318-.154.194.154h9.774V716.484h-9.774l-.217.263v10.082l.022.091m-10.717-5.108h4.311v-5.327h-4.311Zm24.113,4.056a.67.67,0,0,1-.676-.674v-4.008a.675.675,0,0,1,1.35,0v4.008a.672.672,0,0,1-.674.674m-5.5,0a.67.67,0,0,1-.674-.674v-4.008a.673.673,0,1,1,1.346,0v4.008a.671.671,0,0,1-.672.674" transform="translate(-288.374 -715.136)" fill="#171716"/>
  <text id="Fully_Fitted_Kitchens" data-name="Fully Fitted Kitchens" transform="translate(48 60.598)" font-size="10" font-family="Poppins-Light, Poppins" font-weight="300"><tspan x="-47.73" y="0">Fully Fitted Kitchens</tspan></text>
</svg>
