<svg xmlns="http://www.w3.org/2000/svg" width="82" height="70.75" viewBox="0 0 82 70.75">
  <g id="Group_182" data-name="Group 182" transform="translate(1)">
    <g id="Group_181" data-name="Group 181" transform="translate(12)">
      <rect id="Rectangle_94" data-name="Rectangle 94" width="0.495" height="6.928" transform="translate(9.132)" fill="#171716"/>
      <g id="Group_142" data-name="Group 142" transform="translate(0 0.454)">
        <path id="Path_111" data-name="Path 111" d="M149.254,733.9a3.786,3.786,0,0,0,.055,1.163,1.6,1.6,0,0,0-.055-1.163m-.065-.253.027,0,.015-.178c.091-.339.169-.682.282-1.012.346-1,.7-1.991,1.063-2.979a1.737,1.737,0,0,0,.031-1.216c-.087-.242-.169-.484-.255-.724-.175-.486-.342-.974-.528-1.454a3.519,3.519,0,0,0-.7-1.177l-.284-.258-.138.34a6.017,6.017,0,0,0-.049.868c.024.582.064,1.165.116,1.749a7.931,7.931,0,0,0,.333,2.049l-.027.428-.056.306c.044.943.093,1.885.142,2.828l.033.433m-1.476,3.1h.146l-.018-.033.317-.289a3.691,3.691,0,0,1-.864.237c.178-.311.513-.306.766-.448-.051-.1-.233,0-.249-.182.395-.016.781-.033,1.192-.053,0-.177.007-.344,0-.511q-.049-1.013-.106-2.022c-.033-.566-.066-1.132-.106-1.7-.064-.921-.116-1.845-.2-2.766-.08-.884-.2-1.767-.3-2.651-.022-.18-.056-.359-.095-.537l-.082-.195c-.056-.207-.106-.417-.158-.622l-.051-.173c-.08-.206-.135-.238-.349-.206a2.93,2.93,0,0,1-2.182-.546,3.342,3.342,0,0,1-.963-.961,2.25,2.25,0,0,0-.53-.553c-.317-.249-.635-.5-.932-.772a2.709,2.709,0,0,1-.843-1.814,7.925,7.925,0,0,1,.295-2.964,7.291,7.291,0,0,1,.9-1.893,3.5,3.5,0,0,0,.564-1.711,2.289,2.289,0,0,0-.435-1.478l-.177-.033a1.769,1.769,0,0,1-.939-.036,3.159,3.159,0,0,1-.548-.266.868.868,0,0,0-1.079.075c-.2.158-.38.342-.579.506l-.353.231-.049-.027c.031-.217.049-.431.091-.644a2.441,2.441,0,0,1,.349-.863.834.834,0,0,1,.644-.41,2.451,2.451,0,0,0,1.006-.315,2.7,2.7,0,0,1,.875-.322h.409l.26.06a1.469,1.469,0,0,1,.943.706,4.987,4.987,0,0,1,.677,1.521,4.377,4.377,0,0,1-.091,2.5,5.916,5.916,0,0,1-.672,1.176,6.179,6.179,0,0,0-.9,2.206,2.914,2.914,0,0,0-.011,1.378,1.193,1.193,0,0,0,.55.783l.146.018a1,1,0,0,0,.493-.329,3.417,3.417,0,0,1,1.485-1.015,5.441,5.441,0,0,1,2.191-.311,6.172,6.172,0,0,1,2.577.67,11.755,11.755,0,0,1,2.73,1.878,4.431,4.431,0,0,0,1.106.8l.344.311.022.075-.289.058c.262.2.593.182.83.435-.4.109-.77.235-1.15.313a7.644,7.644,0,0,0-1.459.391,10.441,10.441,0,0,1-1.094.428,7.564,7.564,0,0,1-.91.162l-.131.046c-.191.1-.38.2-.571.295l-.227.124a.36.36,0,0,0-.2.448l.149.462c.162.466.315.934.491,1.394a5.389,5.389,0,0,0,.442.965,1.642,1.642,0,0,1,.169,1.438c-.217.746-.484,1.472-.773,2.195-.233.579-.426,1.174-.626,1.767a.794.794,0,0,0,.1.772,1.008,1.008,0,0,1,.113.861c-.078.322-.195.633-.293.95l-.055.195.107.251.149.138a11.163,11.163,0,0,0-1.723.43" transform="translate(-102.19 -709.807)" fill="#171716"/>
        <path id="Path_112" data-name="Path 112" d="M139.567,723.021l-.195-.237-.069-.02c-.3.031-.6.075-.9.1a2.829,2.829,0,0,1-1.58-.293l-.162-.033a2.663,2.663,0,0,1-.539-.056l-.377.009-.482.117a9.965,9.965,0,0,0-1.689.366l-.224.069v-.013l.22-.158-.064-.029-.218.078-.32.076-.164.2.2.106c.267,0,.533-.005.8-.018.974-.04,1.944-.086,2.915-.131.715-.031,1.432-.065,2.149-.1.227-.009.459-.018.7-.031m6.209-6.488a1.9,1.9,0,0,1-.866-1.045,2.344,2.344,0,0,0-.246-.48.585.585,0,0,0-1.068.047,1.279,1.279,0,0,0-.084.872,3.011,3.011,0,0,0,.439.974,7.921,7.921,0,0,0,1.563,1.587c.1-.266.193-.533.3-.8l.02-.364c-.025-.255-.036-.508-.055-.79m-13.6,6.479.238-.226c.227-.118.455-.24.672-.375l.246-.244a10.116,10.116,0,0,1,1.905-2.142,4.245,4.245,0,0,0,.577-.692,5.381,5.381,0,0,1,.821-.948,6.018,6.018,0,0,1,1.472-1,3.5,3.5,0,0,1,.966-.229c.677-.069,1.358-.115,2.038-.171a2.494,2.494,0,0,1,.888.146,4.4,4.4,0,0,1,1.015.408,2.282,2.282,0,0,1,1.061,1.2,3.677,3.677,0,0,1,.149.972c.049.684.1,1.37.136,2.055l.166.2a.653.653,0,0,0,.719-.231,1.315,1.315,0,0,0,.262-.63,1.956,1.956,0,0,0-.12-1.27,3.133,3.133,0,0,0-.584-.777c-.393-.395-.8-.779-1.187-1.181a3.722,3.722,0,0,1-.884-1.5,2.276,2.276,0,0,1,.249-1.973,1.484,1.484,0,0,1,1.159-.7,2.784,2.784,0,0,1,1.807.411,1.6,1.6,0,0,1,.793,1.381,7.052,7.052,0,0,0,.124,1.019c.042.246.076.489.12.737a1.059,1.059,0,0,1-.315.883,3.205,3.205,0,0,1-.759.659l-.084.056a2.124,2.124,0,0,1,.6,1.048,2.949,2.949,0,0,1,.08,1.574,2.3,2.3,0,0,1-1.285,1.565l-.435.186-.47.218a1.236,1.236,0,0,1-1.083-.149c-.408-.227-.813-.461-1.212-.7a.6.6,0,0,0-.551-.055c-.3.106-.61.171-.914.26l-.335.138.657.848.171.211a1.929,1.929,0,0,1,.429,1.026l-.035.288-.12.093-.116-.071c-.113-.173-.217-.351-.348-.519l.084.258.045.175v.138l-.167-.031-.1-.127c-.164-.318-.324-.639-.5-.957v8.582l1.478.1v.042l-.339.031c.26.153.615.084.819.4a2.716,2.716,0,0,1-.874-.262c.062.151.275.153.282.36l-.655-.171-.258-.084a1.152,1.152,0,0,0-.551-.078l-.357-.038-.067-.049.045-.066c.2-.073.2-.224.2-.406-.029-.943-.046-1.887-.064-2.83q-.057-2.847-.115-5.7l0-.386-.118-.136c-.191-.005-.384-.035-.575-.035-.843-.007-1.685-.024-2.526-.005-.824.02-1.649.069-2.473.122-.377.02-.75.082-1.125.12a.791.791,0,0,1-.6-.173l-.076-.12-.082-.244Z" transform="translate(-108.366 -706.63)" fill="#171716"/>
        <rect id="Rectangle_86" data-name="Rectangle 86" width="18.761" height="1.547" transform="translate(0 45.259)" fill="#171716"/>
        <rect id="Rectangle_87" data-name="Rectangle 87" width="0.482" height="21.448" transform="translate(8.595 20.533)" fill="#171716"/>
        <path id="Path_113" data-name="Path 113" d="M123.431,731.666l-.508-.051v-6.38h1.026v13.891h-.519Z" transform="translate(-115.948 -697.159)" fill="#171716"/>
        <rect id="Rectangle_88" data-name="Rectangle 88" width="0.49" height="18.744" transform="translate(9.678 23.234)" fill="#171716"/>
        <path id="Path_114" data-name="Path 114" d="M126.012,732.268c-.169.015-.3.025-.49.038v5.851c-.195.013-.342.02-.52.033V726.419h1.01Z" transform="translate(-114.243 -696.188)" fill="#171716"/>
        <rect id="Rectangle_89" data-name="Rectangle 89" width="1.021" height="8.025" transform="translate(9.679 14.62)" fill="#171716"/>
        <rect id="Rectangle_90" data-name="Rectangle 90" width="1.03" height="7.991" transform="translate(8.049 11.96)" fill="#171716"/>
        <rect id="Rectangle_91" data-name="Rectangle 91" width="3.727" height="2.111" transform="translate(7.516 42.58)" fill="#171716"/>
        <rect id="Rectangle_92" data-name="Rectangle 92" width="5.321" height="1.021" transform="translate(1.609 43.656)" fill="#171716"/>
        <rect id="Rectangle_93" data-name="Rectangle 93" width="5.323" height="1.028" transform="translate(11.821 43.638)" fill="#171716"/>
        <path id="Path_115" data-name="Path 115" d="M122.632,729.054h.471v8.038c-.146.005-.289.011-.471.022Z" transform="translate(-116.186 -694.028)" fill="#171716"/>
        <path id="Path_116" data-name="Path 116" d="M124.889,720.907H124.4v-7.469l.486-.035Z" transform="translate(-114.734 -706.858)" fill="#171716"/>
        <rect id="Rectangle_95" data-name="Rectangle 95" width="0.484" height="6.939" transform="translate(7.51 20.524)" fill="#171716"/>
        <path id="Path_117" data-name="Path 117" d="M125,722.575h.486v6.4c-.162.005-.308.013-.486.02Z" transform="translate(-114.244 -699.34)" fill="#171716"/>
        <path id="Path_118" data-name="Path 118" d="M126.063,736.371h-.473v-6.408c.149-.005.291-.015.473-.024Z" transform="translate(-113.761 -693.301)" fill="#171716"/>
        <rect id="Rectangle_96" data-name="Rectangle 96" width="0.495" height="5.336" transform="translate(8.588 6.042)" fill="#171716"/>
        <path id="Path_119" data-name="Path 119" d="M121.442,733.438c.195-.016.342-.027.511-.038.022-.164.044-.322.067-.5h1.008v1.045h-1.56c-.007-.16-.016-.306-.027-.5" transform="translate(-117.162 -690.878)" fill="#171716"/>
        <path id="Path_120" data-name="Path 120" d="M127.745,733.462v.466h-1.569V732.9h1.014c.015.169.027.317.042.482.175.029.344.055.513.084" transform="translate(-113.281 -690.878)" fill="#171716"/>
        <path id="Path_121" data-name="Path 121" d="M159.508,730.455a3.707,3.707,0,0,1-2.77-1.339c-.295-.313-.59-.628-.9-.912a2.481,2.481,0,0,0-3.389-.036c-.433.387-.823.823-1.236,1.225a3.661,3.661,0,0,1-5.125.007c-.368-.348-.715-.715-1.066-1.081a2.582,2.582,0,0,0-3.843.078,13.709,13.709,0,0,1-1.114,1.114,3.648,3.648,0,0,1-4.983-.156c-.379-.368-.737-.755-1.114-1.125a2.528,2.528,0,0,0-1.283-.706.59.59,0,1,1,.238-1.152,3.718,3.718,0,0,1,1.918,1.074c.369.366.712.753,1.1,1.1a2.5,2.5,0,0,0,3.5-.038c.359-.342.7-.7,1.046-1.063a3.706,3.706,0,0,1,5.3-.011c.309.313.613.63.919.944a2.569,2.569,0,0,0,2.688.773,2.3,2.3,0,0,0,1-.59c.391-.377.761-.779,1.154-1.156a3.532,3.532,0,0,1,2.036-1.015,3.657,3.657,0,0,1,3.194,1.076c.36.357.7.728,1.063,1.077a2.5,2.5,0,0,0,2.664.592,2.965,2.965,0,0,0,1.161-.823c.395-.393.788-.8,1.207-1.17a3.142,3.142,0,0,1,1.543-.7.576.576,0,0,1,.675.455.558.558,0,0,1-.428.693,3.077,3.077,0,0,0-1.66,1.017c-.357.37-.713.743-1.1,1.076a3.46,3.46,0,0,1-2.38.779" transform="translate(-108.366 -696.269)" fill="#171716"/>
        <path id="Path_122" data-name="Path 122" d="M159.508,733.726a3.707,3.707,0,0,1-2.77-1.339c-.295-.313-.59-.628-.9-.912a2.481,2.481,0,0,0-3.389-.036c-.433.387-.823.821-1.236,1.225a3.661,3.661,0,0,1-5.125.007c-.368-.348-.715-.717-1.066-1.081a2.582,2.582,0,0,0-3.843.078,13.7,13.7,0,0,1-1.114,1.114,3.65,3.65,0,0,1-4.983-.156c-.379-.368-.737-.755-1.114-1.125a2.528,2.528,0,0,0-1.283-.706.59.59,0,1,1,.238-1.152,3.717,3.717,0,0,1,1.918,1.074c.369.366.712.752,1.1,1.1a2.5,2.5,0,0,0,3.5-.038c.359-.342.7-.7,1.046-1.063a3.706,3.706,0,0,1,5.3-.011c.309.313.613.63.919.944a2.569,2.569,0,0,0,2.688.773,2.32,2.32,0,0,0,1-.59c.391-.377.761-.779,1.154-1.157a3.54,3.54,0,0,1,2.036-1.014,3.657,3.657,0,0,1,3.194,1.076c.36.355.7.728,1.063,1.077a2.5,2.5,0,0,0,2.664.591,2.982,2.982,0,0,0,1.161-.822c.395-.4.788-.8,1.207-1.172a3.155,3.155,0,0,1,1.543-.7.576.576,0,0,1,.675.455.559.559,0,0,1-.428.693,3.077,3.077,0,0,0-1.66,1.017c-.357.369-.713.743-1.1,1.074a3.452,3.452,0,0,1-2.38.781" transform="translate(-108.366 -693.588)" fill="#171716"/>
        <path id="Path_123" data-name="Path 123" d="M159.508,736.994a3.7,3.7,0,0,1-2.77-1.339c-.295-.311-.59-.626-.9-.91a2.483,2.483,0,0,0-3.389-.038c-.433.389-.823.823-1.236,1.225a3.658,3.658,0,0,1-5.125.007c-.368-.347-.715-.715-1.066-1.079a2.58,2.58,0,0,0-3.843.078,13.69,13.69,0,0,1-1.114,1.114,3.65,3.65,0,0,1-4.983-.156c-.379-.368-.737-.755-1.114-1.125a2.529,2.529,0,0,0-1.283-.706.59.59,0,1,1,.238-1.152,3.694,3.694,0,0,1,1.918,1.074c.369.364.712.752,1.1,1.1a2.494,2.494,0,0,0,3.5-.04c.359-.342.7-.7,1.046-1.061a3.7,3.7,0,0,1,5.3-.011c.309.313.613.628.919.944a2.568,2.568,0,0,0,2.688.773,2.3,2.3,0,0,0,1-.591c.391-.375.761-.777,1.154-1.156a3.528,3.528,0,0,1,2.036-1.014A3.657,3.657,0,0,1,156.766,734c.36.355.7.726,1.063,1.076a2.5,2.5,0,0,0,2.664.593,2.983,2.983,0,0,0,1.161-.823c.395-.395.788-.8,1.207-1.172a3.141,3.141,0,0,1,1.543-.7.576.576,0,0,1,.675.455.556.556,0,0,1-.428.691,3.081,3.081,0,0,0-1.66,1.019c-.357.37-.713.742-1.1,1.074a3.442,3.442,0,0,1-2.38.779" transform="translate(-108.366 -690.907)" fill="#171716"/>
      </g>
    </g>
    <text id="Landmark_Views" data-name="Landmark Views" transform="translate(40 66.75)" font-size="10" font-family="Poppins-Light, Poppins" font-weight="300"><tspan x="-40.155" y="0">Landmark Views</tspan></text>
  </g>
</svg>
