<svg id="Group_256" data-name="Group 256" xmlns="http://www.w3.org/2000/svg" xmlns:xlink="http://www.w3.org/1999/xlink" width="78.424" height="58.17" viewBox="0 0 78.424 58.17">
  <defs>
    <clipPath id="clip-path">
      <rect id="Rectangle_146" data-name="Rectangle 146" width="78.424" height="58.17" fill="none"/>
    </clipPath>
  </defs>
  <g id="Group_255" data-name="Group 255" clip-path="url(#clip-path)">
    <path id="Path_653" data-name="Path 653" d="M78.395,1.274a1.2,1.2,0,0,0-.035-.134c-.015-.054-.029-.107-.049-.159S78.271.9,78.25.857a1.212,1.212,0,0,0-.077-.142A1.416,1.416,0,0,0,78.08.592c-.024-.03-.043-.063-.07-.092a.22.22,0,0,0-.023-.02c-.035-.037-.075-.069-.113-.1S77.8.309,77.755.28s-.073-.043-.11-.064a1.274,1.274,0,0,0-.154-.084C77.454.115,77.414.1,77.375.091a1.673,1.673,0,0,0-.17-.053c-.044-.009-.089-.012-.133-.018S76.978,0,76.929,0c-.011,0-.022,0-.033,0l-.027,0H1.555a.285.285,0,0,0-.029,0C1.515,0,1.5,0,1.493,0a1.4,1.4,0,0,0-.145.02C1.3.026,1.261.029,1.22.038a1.894,1.894,0,0,0-.181.056C1,.107.968.116.934.131A1.667,1.667,0,0,0,.763.224C.733.242.7.257.672.278a1.5,1.5,0,0,0-.14.115C.5.42.469.445.44.475L.412.5A1.158,1.158,0,0,0,.338.6a1.485,1.485,0,0,0-.09.119A1.4,1.4,0,0,0,.177.85,1.247,1.247,0,0,0,.109.993c-.017.043-.028.086-.041.13a1.59,1.59,0,0,0-.041.165c-.008.044-.01.088-.014.132S0,1.508,0,1.555V56.614A1.558,1.558,0,0,0,1.555,58.17H76.869a1.557,1.557,0,0,0,1.554-1.556V1.555c0-.038-.008-.073-.011-.11a1.6,1.6,0,0,0-.017-.171M3.11,5.108,38.157,37.486a1.553,1.553,0,0,0,2.11,0L75.313,5.109V55.06H3.11Zm2.42-2H72.894L39.213,34.228Z" fill="#fff"/>
  </g>
</svg>
